<svg width="48" height="48" fill="none" xmlns="http://www.w3.org/2000/svg">
  <path
    fill-rule="evenodd"
    clip-rule="evenodd"
    d="M12 4.12h24c1.105 0 2 .873 2 1.95v17.552c0 1.077-.895 1.95-2 1.95H12c-1.105 0-2-.873-2-1.95V6.07c0-1.077.895-1.95 2-1.95Zm3 5.85c-.552 0-1 .437-1 .975 0 .54.448.976 1 .976h12c.552 0 1-.437 1-.976a.988.988 0 0 0-1-.975H15Zm0 3.9c-.552 0-1 .438-1 .976 0 .539.448.975 1 .975h6c.552 0 1-.436 1-.975a.988.988 0 0 0-1-.975h-6Z"
    fill="#edccd0"
  />
  <path
    fill-rule="evenodd"
    clip-rule="evenodd"
    d="M7.585 13.038 24 24.598l16.414-11.56a1.017 1.017 0 0 1 1.397.22c.123.166.189.365.189.57v19.546c0 2.154-1.79 3.9-4 3.9H10c-2.21 0-4-1.746-4-3.9V13.828a.988.988 0 0 1 1-.975c.21 0 .415.065.585.185Z"
    fill="#F66565"
  />
</svg>
