<svg
  xmlns="http://www.w3.org/2000/svg"
  viewBox="0 0 595.3 595.3"
  xml:space="preserve"
>
  <path
    fill="#b1361e"
    d="M301.627 439.608c-.19-.19-.379-.38-.379-.568l-.378-.379c-.19 0-.19-.19-.379-.19-.19-.189-.379-.189-.568-.378-.19 0-.378-.19-.568-.19-.19 0-.378-.188-.378-.188-.19 0-.379 0-.568-.19h-2.272c-.189 0-.378 0-.568.19-.189 0-.378.189-.378.189-.19 0-.379.19-.568.19-.19 0-.379.188-.568.378-.19 0-.19.19-.378.19l-.379.378-.379.378-15.332 19.118c-1.893 2.461-1.514 5.868.946 7.761.947.757 2.272 1.136 3.408 1.136 1.703 0 3.218-.757 4.353-2.082l.19-.19c5.678-7.003 16.278-7.003 21.768 0l.19.19c1.135 1.325 2.65 2.082 4.353 2.082 1.135 0 2.46-.379 3.407-1.136 2.46-1.893 2.84-5.49.946-7.76zM276.073 116.302c-7.761 0-14.197 6.057-14.576 13.818l-28.96 10.6c-1.515.568-2.65 1.893-2.65 3.597v18.36h-23.283c-1.704-6.246-7.193-10.789-14.008-10.789-7.95 0-14.575 6.436-14.575 14.575 0 7.95 6.436 14.576 14.575 14.576 6.815 0 12.304-4.543 14.008-10.79h27.068a3.797 3.797 0 0 0 3.786-3.786v-19.496l25.554-9.465c2.46 4.732 7.382 7.95 12.871 7.95 7.95 0 14.576-6.435 14.576-14.575.189-7.95-6.436-14.575-14.386-14.575z"
  />
  <path
    fill="#b1361e"
    d="M269.5 292.3c-2.5-.9-4.9-1.8-7.2-2.8-1.7-.8-3.4-1.6-5-2.4 3.8 3.8 13 10.6 22.9 10.8.6-.7 1.1-1.4 1.5-2.3-1.5-.3-3-.6-4.5-1-2.7-.7-5.2-1.4-7.7-2.3z"
    transform="translate(-264.726 -165.928) scale(1.89289)"
  />
  <path
    fill="#b1361e"
    d="M482.966 255.24c0-8.897-.568-17.793-1.893-26.311 0-.568-.19-1.136-.19-1.704-11.546-75.147-68.522-136.856-143.48-153.324-1.894-8.518-9.465-14.954-18.551-14.954a19.065 19.065 0 0 0-19.118 19.119c0 9.085 6.436 16.657 14.954 18.55v69.847c0 1.136.567 2.272 1.514 3.03.568.378 1.325.567 2.082.567.379 0 .947 0 1.325-.19l28.015-10.6c1.893 2.84 4.732 4.733 8.14 5.68v32.935c-14.197 17.415-31.801 33.126-50.54 47.133l-21.39-49.593c3.975-2.65 6.625-7.004 6.625-12.115 0-7.95-6.436-14.575-14.576-14.575-7.95 0-14.575 6.436-14.575 14.575 0 7.95 6.436 14.575 14.575 14.575h.758l22.336 51.676c-13.061 9.465-26.5 17.983-39.751 25.744l-63.601-19.119c-.757-.189-1.514-.189-2.272.19l-18.929 7.382c-2.65-3.596-6.814-5.868-11.735-5.868-7.95 0-14.576 6.436-14.576 14.575 0 7.95 6.436 14.576 14.576 14.576 7.95 0 14.575-6.436 14.575-14.576 0-.568-.19-1.135-.19-1.703l17.794-7.004 55.461 16.657c-47.322 26.5-89.723 41.833-96.726 44.294l-3.408 1.136c-3.028-2.272-6.814-3.597-10.978-3.597h-.568c-8.897-21.01-13.44-43.915-13.44-66.819 0-11.357 1.136-22.525 3.218-33.315h83.098c1.704 6.247 7.193 10.79 14.008 10.79 7.95 0 14.575-6.436 14.575-14.575 0-7.95-6.436-14.576-14.575-14.576-6.815 0-12.304 4.543-14.008 10.79h-81.394c15.332-62.276 64.547-112.06 128.149-126.824 3.407 5.49 9.464 9.275 16.278 9.275 10.6 0 19.119-8.518 19.119-19.118s-8.518-19.118-19.119-19.118c-9.275 0-16.846 6.625-18.74 15.143-83.476 18.93-144.616 94.077-144.616 181.15 0 24.797 4.921 49.593 14.575 72.308-3.596 3.407-5.678 8.329-5.678 13.629 0 8.518 5.489 15.522 13.06 18.172v74.58c0 1.325.38 2.65 1.136 3.785l4.165 2.84 56.597 39.94v47.7a7.19 7.19 0 0 0 7.193 7.193h189.289a7.19 7.19 0 0 0 7.193-7.193v-47.7l56.787-39.94 4.164-3.029a6.825 6.825 0 0 0 1.136-3.786v-75.147c7.003-2.84 11.925-9.654 11.925-17.604 0-4.922-1.893-9.465-4.922-12.872 10.033-22.525 15.144-47.512 15.144-72.687zM267.933 71.819a9.163 9.163 0 0 1 6.815-3.029c5.11 0 9.275 4.165 9.275 9.276s-4.165 9.275-9.275 9.275c-1.893 0-3.597-.568-5.111-1.515-2.46-1.703-4.165-4.543-4.165-7.571 0-2.65.947-4.922 2.461-6.436zm41.644 6.057c0-5.11 4.164-9.275 9.275-9.275 2.65 0 4.922 1.136 6.625 2.84 1.514 1.703 2.46 3.785 2.46 6.246a9.246 9.246 0 0 1-3.974 7.572c-1.515 1.135-3.218 1.703-5.3 1.703-4.922.19-9.086-3.975-9.086-9.086zm35.586 72.876c0 .568.19.947.19 1.326l-23.094 8.707V96.427c5.679-.947 10.411-4.354 13.061-9.086 20.254 4.543 39.183 12.682 56.03 23.85-.19 28.015-10.98 53.758-28.015 77.04V164.76c6.246-1.704 10.79-7.193 10.79-14.008 0-7.95-6.436-14.575-14.576-14.575-7.95.19-14.386 6.625-14.386 14.575zM139.406 350.263c-2.271 0-4.354-.946-6.057-2.271-1.893-1.704-3.218-4.165-3.218-6.815 0-1.136.19-2.271.568-3.218 1.325-3.407 4.732-5.868 8.518-5.868 1.703 0 3.218.568 4.543 1.325 2.65 1.515 4.543 4.543 4.543 7.95 0 1.704-.568 3.218-1.325 4.543-1.325 2.65-4.165 4.354-7.572 4.354zm321.791-3.596c-1.703 2.082-4.353 3.596-7.193 3.596-2.65 0-4.921-1.136-6.625-2.84-1.514-1.703-2.46-3.785-2.46-6.246 0-3.975 2.46-7.382 6.057-8.518.946-.378 2.082-.568 3.218-.568 4.353 0 8.139 3.218 9.085 7.383.19.567.19 1.135.19 1.893-.379 1.892-1.136 3.785-2.272 5.3zm-5.678-24.608h-1.704a19.065 19.065 0 0 0-19.118 19.118c0 8.14 5.11 15.143 12.493 17.793v69.659l-59.626 42.022c-1.893 1.325-3.029 3.596-3.029 5.868v40.13c0 2.27-1.893 4.163-4.164 4.163h-22.147c-2.271 0-4.164-1.892-4.164-4.164v-14.386c0-3.786-2.65-7.193-6.436-7.571-4.354-.379-7.95 3.028-7.95 7.193v14.953c0 2.272-1.893 4.165-4.165 4.165h-27.068c-2.271 0-4.164-1.893-4.164-4.165v-22.146c0-3.786-2.65-7.193-6.436-7.572-4.354-.379-7.95 3.029-7.95 7.193v22.715c0 2.271-1.893 4.164-4.165 4.164h-27.068c-2.271 0-4.164-1.893-4.164-4.164v-14.765c0-3.786-2.65-7.193-6.436-7.571-4.354-.379-7.95 3.028-7.95 7.193v14.953c0 2.272-1.893 4.165-4.165 4.165h-22.146c-2.272 0-4.165-1.893-4.165-4.165v-40.129c0-2.271-1.135-4.543-3.028-5.868l-59.437-42.022v-70.415c6.625-3.03 11.168-9.654 11.168-17.415 0-1.136-.19-2.272-.379-3.407 7.572-2.65 65.305-23.283 122.092-58.68 76.851-47.89 119.441-102.216 124.363-158.056 33.125 26.69 56.03 65.305 62.654 108.652-.946 94.834-166.195 153.324-167.9 153.892-.378.189-1.324.378-2.081.757-2.082-.379-4.165-.757-6.436-1.136-1.514-.378-3.218-.568-4.732-.946-2.461-.379-4.922-.947-7.383-1.515-.378-.189-.946-.189-1.325-.189l-2.839-.568c-1.136-.19-2.271-.568-3.407-.757-2.65-.568-5.3-1.136-7.761-1.893-4.732-1.136-9.275-2.46-13.818-3.596-4.354-1.325-8.897-2.461-13.061-3.786h-.379c-3.218-.947-6.246-1.893-9.275-3.029-.946-.378-2.082-.757-3.028-.946-1.515-.568-2.84-.947-4.165-1.325-2.46-.757-4.732-1.515-6.814-2.461h-.19c-3.407-1.136-6.435-2.271-9.085-3.407-2.84-1.136-5.3-2.082-7.193-2.84-1.893-.946-3.597-1.514-4.543-2.082-1.136-.568-1.704-.757-1.704-.757s.379.568 1.136 1.325a30.144 30.144 0 0 0 3.596 3.786 63.377 63.377 0 0 0 6.058 5.3c2.46 1.893 5.3 3.975 8.328 6.057h.19c-1.136 3.786-1.893 7.95-1.893 12.115 0 21.768 17.793 39.561 39.561 39.561 16.847 0 31.233-10.6 36.912-25.554 1.892.19 3.975.379 5.867.568 3.408.19 6.626.19 9.654.19.19 0 .379.189.568.189l31.99 32.557c8.14 8.14 20.822 9.465 30.286 3.218l49.972-28.015c4.354-2.839 7.193-7.76 7.193-13.06v-57.544c19.308-15.333 36.723-33.504 48.08-54.137-2.082 14.954-6.057 29.15-11.925 42.59zM268.5 393.61c-.757 1.515-1.893 3.029-2.84 4.354a24.93 24.93 0 0 1-37.857 0c-3.786-4.354-5.868-10.032-5.868-16.09 0-1.514.19-2.839.379-4.353 3.028 1.514 6.246 3.028 9.464 4.543 4.354 1.893 8.897 3.785 13.629 5.3 4.732 1.703 9.654 3.028 14.575 4.353 2.84.758 5.679 1.325 8.518 1.893z"
  />
</svg>
