<svg xmlns="http://www.w3.org/2000/svg" data-name="ICON 02" viewBox="0 0 100 100"><path d="M91.81 10.15H8.19a3 3 0 0 0-3 3v49.26a3 3 0 0 0 3 3h83.62a3 3 0 0 0 3-3V13.15a3 3 0 0 0-3-3Zm.42 49.68a3 3 0 0 1-3 3H10.77a3 3 0 0 1-3-3v-44.1a3 3 0 0 1 3-3h78.46a3 3 0 0 1 3 3Zm-3-45.1H10.77a1 1 0 0 0-1 1v44.1a1 1 0 0 0 1 1h78.46a1 1 0 0 0 1-1v-44.1a1 1 0 0 0-1-1Zm-75.46 25.1a1 1 0 0 1-2 0v-2.1a1 1 0 0 1 2 0Zm0-6a1 1 0 0 1-2 0v-14.1a1 1 0 0 1 2 0Zm71.3 54.34c0 .06-.26.5-1.74 1.11a5.68 5.68 0 0 1-3.41.26c-6.86-1.48-17.83-2.37-29.35-2.37-12 0-23.16.94-30 2.52a5.75 5.75 0 0 1-3.27-.16c-2.16-.77-2.37-1.35-2.38-1.35.32-1.32 8.91-4 28.16-4.62q1 0 2-.06c3.52-.08 7.24-.07 10.75 0h1.27c19.09.67 27.61 3.35 27.97 4.67Zm-37.16-6.71h-3.74l1.56-14.11h8.52l1.58 14.1h-7.92Z"/></svg>