<svg xmlns="http://www.w3.org/2000/svg" data-name="Layer 1" viewBox="0 0 24 24"><path fill="#eeb300" d="m23.22 12.71-1.35 1.43a1 1 0 0 0-.25.95l.45 1.91a1 1 0 0 1-.71 1.23l-1.88.56a1 1 0 0 0-.7.7l-.56 1.88a1 1 0 0 1-1.23.71l-1.91-.45a1 1 0 0 0-.95.25l-1.43 1.35a1 1 0 0 1-1.42 0l-1.42-1.36a1 1 0 0 0-.95-.25L7 22.07a1 1 0 0 1-1.23-.71l-.56-1.88a1 1 0 0 0-.7-.7l-1.88-.56a1 1 0 0 1-.7-1.22l.45-1.91a1 1 0 0 0-.25-.95L.78 12.71a1 1 0 0 1 0-1.42l1.35-1.43a1 1 0 0 0 .25-.95L1.93 7a1 1 0 0 1 .71-1.23l1.88-.56a1 1 0 0 0 .7-.7l.56-1.88A1 1 0 0 1 7 1.93l1.91.45a1 1 0 0 0 .95-.25L11.29.78a1 1 0 0 1 1.42 0l1.43 1.35a1 1 0 0 0 .95.25L17 1.93a1 1 0 0 1 1.23.71l.56 1.88a1 1 0 0 0 .7.7l1.88.56a1 1 0 0 1 .7 1.22l-.45 1.91a1 1 0 0 0 .25.95l1.35 1.43a1 1 0 0 1 0 1.42Z"/><circle cx="12" cy="12" r="7.5" fill="#fdd331"/></svg>