<svg width="30" height="30" fill="none" xmlns="http://www.w3.org/2000/svg">
  <path
    d="M14.568 25.231a.943.943 0 0 1 1.354.316 1.09 1.09 0 0 1 .806-.33c.264.006.516.109.71.29a1.22 1.22 0 0 1 .442-.66 1.195 1.195 0 0 1 1.189-.147v.027a1.342 1.342 0 0 1 1.286-1.314 1.642 1.642 0 0 1 .729-2.172l.005.005a1.36 1.36 0 0 1-.376-.976c.006-.29.104-.572.28-.801a1.247 1.247 0 0 1-.555-.665c-.1-.281-.098-.59.008-.87a1.106 1.106 0 0 1-.72-.375 1.13 1.13 0 0 1-.277-.77c0-.059.005-.117.014-.174a.88.88 0 0 1-.19.018.89.89 0 0 1-.542-.205.908.908 0 0 1-.305-.496.795.795 0 0 1-.466.138.81.81 0 0 1-.761-.628.502.502 0 0 1-.48.01v-.01c-.081.279-.232.531-.44.733a.51.51 0 0 1 .291.473.522.522 0 0 1-.064.242.803.803 0 0 1 .595.564.825.825 0 0 1-.197.8c.188.084.341.23.435.413a.91.91 0 0 1-.39 1.218c.1.092.18.2.24.321.282.554.069 1.237-.48 1.512-.085.045-.177.08-.271.1v.005a1.26 1.26 0 0 1-.534 1.686 1.215 1.215 0 0 1-.666.133c.017.278-.051.554-.194.791a1.35 1.35 0 0 1-.607.537c.06.077.106.164.135.257h-.004v.004Z"
    fill="#B1361E"
  />
  <path
    d="M28.247.458H1.752c-.344 0-.675.139-.919.385-.243.247-.38.581-.38.93v26.454a1.328 1.328 0 0 0 .38.93 1.299 1.299 0 0 0 .92.385h26.494a1.286 1.286 0 0 0 .92-.385 1.315 1.315 0 0 0 .38-.93V1.773a1.328 1.328 0 0 0-.38-.93 1.299 1.299 0 0 0-.92-.385Zm-1.2 17.81a1.22 1.22 0 0 1-.733.532 1.115 1.115 0 0 1-.335 1.706c-.197.102-.42.141-.639.113a.973.973 0 0 1-.342.882.946.946 0 0 1-.971.139.79.79 0 0 1-.639.696c.041.184.05.373.028.56a1.64 1.64 0 0 1-.603 1.092 1.603 1.603 0 0 1-1.19.34h.045a1.364 1.364 0 0 1-.347 1.412 1.327 1.327 0 0 1-1.523.224 1.226 1.226 0 0 1-.258.625 1.204 1.204 0 0 1-1.216.422 1.201 1.201 0 0 1-.582-.332c-.07.212-.203.398-.38.532a1.088 1.088 0 0 1-1.662-.44.945.945 0 0 1-1.347-.144.968.968 0 0 1-.198-.461.766.766 0 0 1-.353.078.78.78 0 0 1-.752-.71l.005-.01a1.613 1.613 0 0 1-1.98.636c-.39-.161-.7-.47-.868-.86a1.322 1.322 0 0 1-1.388.365 1.355 1.355 0 0 1-.926-1.245 1.192 1.192 0 0 1-1.26-.234 1.221 1.221 0 0 1-.339-1.25c-.218.04-.442.011-.643-.081a1.1 1.1 0 0 1-.486-.435 1.119 1.119 0 0 1 .07-1.252.953.953 0 0 1-.587-.768.972.972 0 0 1 .374-.895.78.78 0 0 1-.322-.65.795.795 0 0 1 .1-.371l.022.004a1.6 1.6 0 0 1-.602-.293 1.65 1.65 0 0 1-.317-2.263 1.322 1.322 0 0 1-.425-.178 1.364 1.364 0 0 1-.408-1.864c.108-.17.252-.312.421-.418a1.232 1.232 0 0 1-.13-1.819 1.2 1.2 0 0 1 .583-.334 1.115 1.115 0 0 1 .34-1.702c.197-.101.42-.14.638-.112l.005.05a.973.973 0 0 1 .33-.936.946.946 0 0 1 .974-.14.786.786 0 0 1 .643-.696 1.64 1.64 0 0 1 .555-1.634 1.604 1.604 0 0 1 1.166-.359 1.361 1.361 0 0 1-.073-.462c.023-.747.634-1.338 1.368-1.315.198.003.393.052.57.142.027-.228.117-.444.26-.623a1.191 1.191 0 0 1 1.796-.087c.07-.212.202-.398.379-.533a1.088 1.088 0 0 1 1.663.437.946.946 0 0 1 1.544.604.784.784 0 0 1 1.11.632l-.01.014c.182-.292.45-.518.766-.646a1.6 1.6 0 0 1 2.083.87 1.322 1.322 0 0 1 1.39-.372 1.34 1.34 0 0 1 .924 1.248 1.192 1.192 0 0 1 1.267.231 1.222 1.222 0 0 1 .336 1.257 1.084 1.084 0 0 1 1.124.517 1.119 1.119 0 0 1-.064 1.247.953.953 0 0 1 .587.769.974.974 0 0 1-.374.894.796.796 0 0 1 .217 1.026c.212.055.41.153.584.289a1.65 1.65 0 0 1 .313 2.258 1.35 1.35 0 0 1 1.008 1.028 1.364 1.364 0 0 1-.592 1.436 1.23 1.23 0 0 1 .276 1.617Z"
    fill="#B1361E"
  />
  <path
    d="M14.337 4.572a1.09 1.09 0 0 1-.806.33 1.08 1.08 0 0 1-.707-.284 1.22 1.22 0 0 1-.444.658 1.195 1.195 0 0 1-.751.24c-.15-.003-.3-.034-.44-.092a1.354 1.354 0 0 1-.395.895 1.324 1.324 0 0 1-.89.387 1.644 1.644 0 0 1-.73 2.172c.24.252.38.595.372.975-.007.29-.106.569-.28.797.389.22.642.642.633 1.123-.005.141-.034.28-.086.412.279.029.537.163.722.377.184.213.283.49.274.773 0 .057-.005.113-.013.17a.898.898 0 0 1 1.041.687.795.795 0 0 1 .462-.138.81.81 0 0 1 .765.628.502.502 0 0 1 .462-.019c.053-.286.18-.553.367-.774a.514.514 0 0 1-.14-.655.803.803 0 0 1-.596-.567.825.825 0 0 1 .202-.803.896.896 0 0 1-.532-.773.915.915 0 0 1 .255-.686.895.895 0 0 1 .236-.176 1.12 1.12 0 0 1-.368-.816 1.133 1.133 0 0 1 .422-.9c.134-.107.29-.181.458-.217V8.29a1.263 1.263 0 0 1-.079-.95c.1-.316.318-.578.609-.73.206-.11.438-.158.67-.138a1.374 1.374 0 0 1 .172-.755c.129-.23.32-.416.552-.537l.073-.032a.792.792 0 0 1-.132-.257.943.943 0 0 1-1.354-.325l-.004.005Zm9.722 9.94a1.633 1.633 0 0 1-.62-1.42 1.299 1.299 0 0 1-1.015-.179 1.352 1.352 0 0 1-.534-.655 1.224 1.224 0 0 1-1.585-.32 1.099 1.099 0 0 1-1.621.174.914.914 0 0 1-.082.174.887.887 0 0 1-1.032.371.817.817 0 0 1-.127.472.798.798 0 0 1-.924.339.518.518 0 0 1-.076.26.52.52 0 0 1-.091.106c.18.196.31.434.38.692a.502.502 0 0 1 .227-.05.508.508 0 0 1 .416.238.806.806 0 0 1 .775-.26.802.802 0 0 1 .602.557.885.885 0 0 1 .566-.187.898.898 0 0 1 .865 1.017l.009-.087a1.097 1.097 0 0 1 1.175.284 1.125 1.125 0 0 1 .26 1.094c.684.019 1.223.591 1.205 1.283-.006.233-.076.46-.204.655.239.111.44.29.58.516.139.225.21.487.204.753a1.375 1.375 0 0 1-.091.444l.005-.009.122.023a.97.97 0 0 1 .504-.895.942.942 0 0 1 .47-.113 1.117 1.117 0 0 1 .135-.87c.143-.222.36-.385.612-.458a1.224 1.224 0 0 1 .162-1.832 1.36 1.36 0 0 1-.426-1.782 1.598 1.598 0 0 1-.841-.335h-.005Z"
    fill="#B1361E"
  />
  <path
    d="M24.122 10.83a.782.782 0 0 1 .1-.134.971.971 0 0 1-.367-1.356 1.11 1.11 0 0 1-.76-1.324 1.192 1.192 0 0 1-.785-.076 1.21 1.21 0 0 1-.696-.99 1.318 1.318 0 0 1-.967.078 1.334 1.334 0 0 1-.763-.606 1.61 1.61 0 0 1-1.493.67 1.606 1.606 0 0 1-.74-.28v-.014a1.366 1.366 0 0 1-.67.81 1.327 1.327 0 0 1-.828.138 1.262 1.262 0 0 1-.187.639 1.242 1.242 0 0 1-.882.58 1.131 1.131 0 0 1-.675 1.502.912.912 0 0 1-.1 1.25c.147.079.265.2.34.349a.81.81 0 0 1-.18.976.51.51 0 0 1 .23.325c.266-.075.546-.082.815-.018a.514.514 0 0 1 .48-.412.824.824 0 0 1 .18-.808.804.804 0 0 1 .785-.232.911.911 0 0 1 .136-.587.882.882 0 0 1 1.231-.275c.029-.133.08-.26.154-.375a1.116 1.116 0 0 1 .7-.497 1.096 1.096 0 0 1 1.057.34 1.245 1.245 0 0 1 .775-.55 1.223 1.223 0 0 1 .932.166c.197.126.354.305.453.518.43-.293 1.01-.32 1.472-.019.093.06.178.13.253.211Zm-8.513 6.046a.518.518 0 0 1-.059-.293c-.133.034-.27.05-.407.05-.136 0-.267-.014-.39-.046a.518.518 0 0 1-.251.534.508.508 0 0 1-.238.066.825.825 0 0 1-.181.801.804.804 0 0 1-.779.235.911.911 0 0 1-.136.586.888.888 0 0 1-1.236.275 1.13 1.13 0 0 1-.154.375 1.118 1.118 0 0 1-.697.495 1.099 1.099 0 0 1-1.06-.339v.005a1.224 1.224 0 0 1-1.707.38 1.237 1.237 0 0 1-.453-.513c-.43.293-1.005.32-1.471.018a1.355 1.355 0 0 1-.254-.21.8.8 0 0 1-.1.128.957.957 0 0 1 .367 1.356c.281.082.53.275.67.559.12.235.153.507.091.765.264-.065.541-.038.788.077a1.211 1.211 0 0 1 .693.99c.301-.15.647-.179.97-.08.32.097.594.314.764.607a1.602 1.602 0 0 1 2.232-.39 1.36 1.36 0 0 1 .666-.797c.255-.133.546-.18.829-.133a1.25 1.25 0 0 1 1.073-1.223 1.13 1.13 0 0 1 .516-1.433c.051-.026.104-.047.159-.065a.912.912 0 0 1 .095-1.25.805.805 0 0 1-.34-.348.828.828 0 0 1 .181-.98.51.51 0 0 1-.18-.202Z"
    fill="#B1361E"
  />
  <path
    d="M13.603 15.552a.503.503 0 0 1-.54.027.514.514 0 0 1-.18-.169.806.806 0 0 1-.772.256.802.802 0 0 1-.6-.554.894.894 0 0 1-1.44-.742 1.098 1.098 0 0 1-.399.06 1.1 1.1 0 0 1-.87-.462 1.13 1.13 0 0 1-.167-.981h-.004a1.24 1.24 0 0 1-1.205-1.278c.006-.234.077-.46.204-.655a1.35 1.35 0 0 1-.574-.518 1.372 1.372 0 0 1-.2-.751c.003-.15.03-.299.081-.44a.78.78 0 0 1-.122-.023.97.97 0 0 1-.504.895.942.942 0 0 1-.47.113c.073.288.032.6-.135.87-.141.223-.356.388-.607.463a1.232 1.232 0 0 1-.163 1.832 1.36 1.36 0 0 1 .426 1.777 1.633 1.633 0 0 1 1.458 1.755c.34-.078.702-.023 1.019.183.24.155.426.383.53.65a1.226 1.226 0 0 1 1.272.037c.12.076.225.172.312.284a1.1 1.1 0 0 1 1.621-.17.892.892 0 0 1 1.118-.55.8.8 0 0 1 1.046-.802.517.517 0 0 1 .3-.457 1.669 1.669 0 0 1-.435-.64v-.01Z"
    fill="#B1361E"
  />
</svg>
