<svg width="149" height="93" fill="none" xmlns="http://www.w3.org/2000/svg">
  <path
    d="M50.4 71.2c1.6 0 3-1.3 3-3 0-1.6-1.3-3-3-3-1.6 0-3 1.3-3 3 .1 1.7 1.4 3 3 3ZM50.4 93c1.6 0 3-1.3 3-3 0-1.6-1.3-3-3-3-1.6 0-3 1.3-3 3 .1 1.7 1.4 3 3 3ZM26.7 71.2c1.6 0 3-1.3 3-3 0-1.6-1.3-3-3-3-1.6 0-3 1.3-3 3 .1 1.7 1.4 3 3 3ZM26.7 93c1.6 0 3-1.3 3-3 0-1.6-1.3-3-3-3-1.6 0-3 1.3-3 3 .1 1.7 1.4 3 3 3ZM3 71.2c1.6 0 3-1.3 3-3 0-1.6-1.3-3-3-3-1.6 0-3 1.3-3 3s1.4 3 3 3ZM3 93c1.6 0 3-1.3 3-3 0-1.6-1.3-3-3-3-1.6 0-3 1.3-3 3s1.4 3 3 3ZM50.4 6c1.6 0 3-1.3 3-3 0-1.6-1.3-3-3-3-1.6 0-3 1.3-3 3 .1 1.7 1.4 3 3 3ZM50.4 27.8c1.6 0 3-1.3 3-3 0-1.6-1.3-3-3-3-1.6 0-3 1.3-3 3 .1 1.6 1.4 3 3 3ZM50.4 49.5c1.6 0 3-1.3 3-3 0-1.6-1.3-3-3-3-1.6 0-3 1.3-3 3 .1 1.7 1.4 3 3 3ZM26.7 6c1.6 0 3-1.3 3-3 0-1.6-1.3-3-3-3-1.6 0-3 1.3-3 3 .1 1.7 1.4 3 3 3ZM26.7 27.8c1.6 0 3-1.3 3-3 0-1.6-1.3-3-3-3-1.6 0-3 1.3-3 3 .1 1.6 1.4 3 3 3ZM26.7 49.5c1.6 0 3-1.3 3-3 0-1.6-1.3-3-3-3-1.6 0-3 1.3-3 3 .1 1.7 1.4 3 3 3ZM3 6c1.6 0 3-1.3 3-3 0-1.6-1.3-3-3-3-1.6 0-3 1.3-3 3s1.4 3 3 3ZM3 27.8c1.6 0 3-1.3 3-3 0-1.6-1.3-3-3-3-1.6 0-3 1.3-3 3 0 1.6 1.4 3 3 3ZM3 49.5c1.6 0 3-1.3 3-3 0-1.6-1.3-3-3-3-1.6 0-3 1.3-3 3s1.4 3 3 3ZM145.301 71.2c1.6 0 3-1.3 3-3 0-1.6-1.3-3-3-3-1.6 0-3 1.3-3 3s1.3 3 3 3ZM145.301 93c1.6 0 3-1.3 3-3 0-1.6-1.3-3-3-3-1.6 0-3 1.3-3 3s1.3 3 3 3ZM121.601 71.2c1.6 0 3-1.3 3-3 0-1.6-1.3-3-3-3-1.6 0-3 1.3-3 3s1.3 3 3 3ZM121.601 93c1.6 0 3-1.3 3-3 0-1.6-1.3-3-3-3-1.6 0-3 1.3-3 3s1.3 3 3 3ZM97.9 71.2c1.6 0 3.001-1.3 3.001-3 0-1.6-1.3-3-3-3-1.6 0-3 1.3-3 3s1.3 3 3 3ZM97.9 93c1.6 0 3.001-1.3 3.001-3 0-1.6-1.3-3-3-3-1.6 0-3 1.3-3 3s1.3 3 3 3ZM71.7 69.9c.2.3.5.6.8.8.5.3 1 .5 1.7.5.4 0 .8-.1 1.2-.2.4-.2.7-.4.9-.6.5-.5.9-1.3.9-2.1s-.3-1.6-.9-2.1c-.3-.3-.6-.5-.9-.6-.4-.2-.7-.2-1.2-.2-.6 0-1.2.2-1.7.5-.3.2-.6.5-.8.8-.2.3-.4.7-.4 1.1 0 .2-.1.4-.1.6 0 .2 0 .4.1.6 0 .3.2.6.4.9ZM71.7 91.7c.2.3.5.6.8.8.5.3 1 .5 1.7.5.4 0 .8-.1 1.2-.2.4-.2.7-.4.9-.6.5-.5.9-1.3.9-2.1s-.3-1.6-.9-2.1c-.3-.3-.6-.5-.9-.6-.4-.2-.7-.2-1.2-.2-.6 0-1.2.2-1.7.5-.3.2-.6.5-.8.8-.2.3-.4.7-.4 1.1 0 .2-.1.4-.1.6 0 .2 0 .4.1.6 0 .2.2.6.4.9ZM145.301 6c1.6 0 3-1.3 3-3 0-1.6-1.3-3-3-3-1.6 0-3 1.3-3 3s1.3 3 3 3ZM145.301 27.8c1.6 0 3-1.3 3-3 0-1.6-1.3-3-3-3-1.6 0-3 1.3-3 3 0 1.6 1.3 3 3 3ZM145.301 49.5c1.6 0 3-1.3 3-3 0-1.6-1.3-3-3-3-1.6 0-3 1.3-3 3s1.3 3 3 3ZM121.601 6c1.6 0 3-1.3 3-3 0-1.6-1.3-3-3-3-1.6 0-3 1.3-3 3s1.3 3 3 3ZM121.601 27.8c1.6 0 3-1.3 3-3 0-1.6-1.3-3-3-3-1.6 0-3 1.3-3 3 0 1.6 1.3 3 3 3ZM121.601 49.5c1.6 0 3-1.3 3-3 0-1.6-1.3-3-3-3-1.6 0-3 1.3-3 3s1.3 3 3 3ZM97.9 6c1.6 0 3.001-1.3 3.001-3 0-1.6-1.3-3-3-3-1.6 0-3 1.3-3 3s1.3 3 3 3ZM97.9 27.8c1.6 0 3.001-1.3 3.001-3 0-1.6-1.3-3-3-3-1.6 0-3 1.3-3 3 0 1.6 1.3 3 3 3ZM97.9 49.5c1.6 0 3.001-1.3 3.001-3 0-1.6-1.3-3-3-3-1.6 0-3 1.3-3 3s1.3 3 3 3ZM71.7 4.7c.2.3.5.6.8.8.5.3 1 .5 1.7.5.4 0 .8-.1 1.2-.2.4-.2.7-.4.9-.6.5-.5.9-1.3.9-2.1s-.3-1.6-.9-2.1c-.3-.3-.6-.5-.9-.6-.4-.1-.7-.2-1.2-.2-.6 0-1.2.2-1.7.5-.3.2-.6.5-.8.8-.2.3-.4.7-.4 1.1 0 .2-.1.4-.1.6 0 .2 0 .4.1.6 0 .3.2.6.4.9ZM71.7 26.5c.2.3.5.6.8.8.5.3 1 .5 1.7.5.4 0 .8-.1 1.2-.2.4-.2.7-.4.9-.6.5-.5.9-1.3.9-2.1s-.3-1.6-.9-2.1c-.3-.3-.6-.5-.9-.6-.4-.1-.7-.2-1.2-.2-.6 0-1.2.2-1.7.5-.3.2-.6.5-.8.8-.2.3-.4.7-.4 1.1 0 .2-.1.4-.1.6 0 .2 0 .4.1.6 0 .2.2.6.4.9ZM71.7 48.2c.2.3.5.6.8.8.5.3 1 .5 1.7.5.4 0 .8-.1 1.2-.2.4-.1.7-.4.9-.6.5-.5.9-1.3.9-2.1s-.3-1.6-.9-2.1c-.3-.3-.6-.5-.9-.6-.4-.2-.7-.2-1.2-.2-.6 0-1.2.2-1.7.5-.3.2-.6.5-.8.8-.2.3-.4.7-.4 1.1 0 .2-.1.4-.1.6 0 .2 0 .4.1.6 0 .2.2.6.4.9Z"
    fill="#FFCDCF"
  />
</svg>
