<svg version="1.0" xmlns="http://www.w3.org/2000/svg" viewBox="0 0 200 200"><path d="M148 37.1c-1.4.5-6.5 5-11.5 9.9l-9 8.9-7.5.7c-8.5.8-11.2 1.9-15.4 6.3-2.9 3.1-3 3.1-1.3 6.3.9 1.8 2.2 4.1 2.9 5 1.1 1.5.6 2.4-3.1 6.2-2.9 3-4.2 5-3.8 6.1.5 1.1-.7 2.5-3.8 4.7C93 93 91 94.7 91 95.1c0 1.2-3.2 2-9.3 2.5-5.5.4-6 .3-9.5-3.1-2-1.9-4.7-3.8-5.9-4.1-1.8-.5-2.2-1.1-1.7-3 1.5-5.8-4.3-13.7-11-14.9l-3.3-.7.3-5.9c.2-3.2.8-6.8 1.4-7.9 2.1-3.9-2.2-.6-9.3 7-11.7 12.7-17.1 27.1-17 45.5 0 9 .5 12.4 2.6 19 7.4 22.6 25.7 39.8 48 45 8.1 1.9 23.5 1.9 31.7-.1 12.4-2.9 28.5-12.8 34.9-21.5l2.4-3.2-2.6.7c-2 .5-2.9.1-3.7-1.4-2.8-5.3-13.8-7.9-18.7-4.5-2.1 1.5-2.3 1.4-3.7-1.8-1.4-3.4-5.9-7.7-8-7.7-1.1 0-4.7-10.1-4.6-13.3 0-1-.4-2.6-1-3.6-.7-1.4-.4-2.4 1-3.9 1.1-1.2 2-2.4 2-2.7 0-.3.8-1.3 1.8-2.4.9-1 2.8-3.2 4.1-4.9 1.4-1.7 2.9-2.8 3.4-2.5.5.3 3-1.6 5.7-4.2 3-2.9 5-4.3 5.4-3.6.4.6 2.6 2.1 4.8 3.2l4 2 2.5-2.3c3.9-3.6 5.6-7.7 6.3-15.6l.7-7.2 9.7-10c5.3-5.4 9.6-10.3 9.6-10.7.1-.4.5-2.8 1-5.3s.6-6.2.3-8.3l-.6-3.7-7.1.1c-3.9 0-8.2.5-9.6 1zm13.8.7c.9.6-.4 2.3-4.5 6-3.2 2.9-6.9 6.2-8.2 7.5-1.3 1.2-2.1 1.6-1.6.9.6-1.1.3-1.2-1.4-.3-2.4 1.3-2.8 2.3-.6 1.5 2.1-.9 1.9.6-.6 3.2-2.3 2.4-1.8 4.4.9 4.4 1.7 0 1 .5-9.3 6.5l-5 2.9 3.8-4.4c3.7-4.3 3.7-4.5 1.6-5.2-2.2-.8-2.2-.9-.3-2.4 1.8-1.4 1.8-1.5-.3-.4-2.8 1.3-3.9 3-1.9 3 3.8 0 2.1 2.8-7.5 12.6-8.7 8.8-10.5 10.2-11.5 8.9-1.6-2.2-2.4-1.9-6.9 2.5l-4.1 4.1-1.9-2.1c-1.8-2-1.8-2.1 2.6-6.6 3.7-3.8 4.2-4.7 3.1-6.2-2.8-4-4.3-7.5-3.8-8.7 1.3-3.4 8.3-6.6 15.7-7.2l7.4-.6 9.6-9.3c5.9-5.7 10.7-9.5 12.5-9.9 1.6-.4 3.4-.8 3.9-1 2-.7 7-.5 8.3.3zm-46 47.5 2.2 2.3-4.1 4c-2.8 2.7-3.8 4.5-3.5 5.8 1 3.7-12.6 14.3-17.2 13.4-2.5-.5-1.7-7.2 1.3-10.4 1.4-1.5 3-3.9 3.7-5.5.7-1.6 1.9-2.9 2.5-2.9.7 0 1.3-.5 1.3-1.1 0-.6.6-.9 1.4-.6.7.3 3-1.2 5.2-3.4 2.1-2.1 4.1-3.9 4.4-3.9.4 0 1.6 1 2.8 2.3z"/><path d="M140.4 55.6c-1.8 1.4-1.8 1.5.4.4 1.2-.6 2.2-1.3 2.2-1.5 0-.8-.5-.6-2.6 1.1zM104.5 44c.3.5.8 1 1.1 1 .2 0 .4-.5.4-1 0-.6-.5-1-1.1-1-.5 0-.7.4-.4 1zM81.6 49.7c-.9 4.3-.9 4.3-5.5 4.4l-4.6.1 4.6 1c4.5.9 4.7 1.2 5.5 5.1l.8 4.2.4-4.2c.3-4 .4-4.1 5-5.1l4.7-1-4.7-.1-4.7-.1-.3-4.3-.4-4.2-.8 4.2zM80.4 85.1c-1 1.7 1.3 3.6 2.7 2.2 1.2-1.2.4-3.3-1.1-3.3-.5 0-1.2.5-1.6 1.1zM175 92c0 .5.5 1 1.1 1 .5 0 .7-.5.4-1-.3-.6-.8-1-1.1-1-.2 0-.4.4-.4 1zM155 96c0 .5.5 1 1 1 .6 0 1-.5 1-1 0-.6-.4-1-1-1-.5 0-1 .4-1 1zM128.7 115.6c-.8.8.1 2.4 1.4 2.4.5 0 .9-.7.9-1.5 0-1.5-1.2-2-2.3-.9zM153 124c0 .5.5 1 1 1 .6 0 1-.5 1-1 0-.6-.4-1-1-1-.5 0-1 .4-1 1z"/></svg>