<svg xmlns="http://www.w3.org/2000/svg" viewBox="0 0 24 24"><path fill="#303c42" d="M21 1H3a2 2 0 0 0-2 2v3a2 2 0 0 0 2 2h18a2 2 0 0 0 2-2V3a2 2 0 0 0-2-2zM5 5.5a.5.5 0 0 1-1 0v-2a.5.5 0 0 1 1 0zm2 0a.5.5 0 0 1-1 0v-2a.5.5 0 0 1 1 0zm2 0a.5.5 0 0 1-1 0v-2a.5.5 0 0 1 1 0zm7 0a1 1 0 1 1 1-1 1 1 0 0 1-1 1zm3 0a1 1 0 1 1 1-1 1 1 0 0 1-1 1zm2 3H3a2 2 0 0 0-2 2v3a2 2 0 0 0 2 2h18a2 2 0 0 0 2-2v-3a2 2 0 0 0-2-2zM5 13a.5.5 0 0 1-1 0v-2a.5.5 0 0 1 1 0zm2 0a.5.5 0 0 1-1 0v-2a.5.5 0 0 1 1 0zm2 0a.5.5 0 0 1-1 0v-2a.5.5 0 0 1 1 0zm7 0a1 1 0 1 1 1-1 1 1 0 0 1-1 1zm3 0a1 1 0 1 1 1-1 1 1 0 0 1-1 1zm2 3H3a2 2 0 0 0-2 2v3a2 2 0 0 0 2 2h18a2 2 0 0 0 2-2v-3a2 2 0 0 0-2-2zM5 20.5a.5.5 0 0 1-1 0v-2a.5.5 0 0 1 1 0zm2 0a.5.5 0 0 1-1 0v-2a.5.5 0 0 1 1 0zm2 0a.5.5 0 0 1-1 0v-2a.5.5 0 0 1 1 0zm7 0a1 1 0 1 1 1-1 1 1 0 0 1-1 1zm3 0a1 1 0 1 1 1-1 1 1 0 0 1-1 1z" data-name="Server 2"/></svg>