<svg
  xmlns="http://www.w3.org/2000/svg"
  width="24"
  height="24"
  enable-background="new 0 0 64 64"
  viewBox="0 0 64 64"
>
  <path
    fill="#FECC95"
    d="M31.998,18.447c-7.47,0-13.552,6.082-13.552,13.552c0,7.479,6.082,13.561,13.552,13.561
  c7.479,0,13.561-6.082,13.561-13.561C45.559,24.528,39.477,18.447,31.998,18.447z"
  />
  <path
    fill="#E6A55F"
    d="M32 13.582c.638 0 1.157-.519 1.157-1.157V1.157C33.157.519 32.638 0 32 0c-.638 0-1.157.519-1.157 1.157v11.268C30.843 13.063 31.362 13.582 32 13.582zM17.341 18.976c.218.218.509.339.818.339s.6-.121.818-.339c.218-.219.339-.509.339-.818 0-.309-.12-.6-.339-.818l-7.969-7.968c-.218-.218-.509-.339-.818-.339-.309 0-.6.12-.818.339C9.154 9.591 9.033 9.882 9.033 10.19c0 .309.12.6.339.818L17.341 18.976zM13.581 32c0-.638-.519-1.157-1.157-1.157H1.157C.519 30.843 0 31.362 0 32c0 .638.519 1.157 1.157 1.157h11.268C13.063 33.157 13.581 32.638 13.581 32zM18.159 44.685c-.309 0-.6.121-.818.339l-7.969 7.968C9.154 53.21 9.033 53.5 9.033 53.809c0 .309.12.599.339.818.218.218.509.339.818.339.309 0 .6-.12.818-.339l7.969-7.968c.218-.218.339-.509.339-.818 0-.309-.12-.599-.339-.818C18.758 44.805 18.468 44.685 18.159 44.685zM32 50.418c-.638 0-1.157.519-1.157 1.157v11.268C30.843 63.481 31.362 64 32 64c.638 0 1.157-.519 1.157-1.157V51.575C33.157 50.937 32.638 50.418 32 50.418zM46.659 45.024c-.218-.218-.509-.339-.818-.339-.309 0-.6.121-.818.339-.218.219-.339.509-.339.818 0 .309.121.599.339.818l7.968 7.968c.218.218.509.339.818.339.309 0 .6-.12.818-.339.218-.219.339-.509.339-.818 0-.309-.12-.599-.339-.818L46.659 45.024zM62.843 30.843H51.574c-.638 0-1.157.519-1.157 1.157 0 .638.519 1.157 1.157 1.157h11.269C63.481 33.157 64 32.638 64 32 64 31.362 63.481 30.843 62.843 30.843zM45.841 19.315c.309 0 .6-.121.818-.339l7.968-7.968c.218-.219.339-.509.339-.818 0-.309-.12-.599-.339-.818-.218-.218-.509-.339-.818-.339-.309 0-.6.12-.818.339l-7.968 7.968c-.218.219-.339.509-.339.818 0 .309.121.599.339.818C45.242 19.195 45.533 19.315 45.841 19.315zM23.552 14.576c.17.443.603.741 1.079.741.141 0 .281-.026.416-.078.288-.111.516-.328.641-.611.125-.282.133-.597.022-.884l-2.693-6.983c-.17-.442-.604-.74-1.08-.74-.142 0-.281.025-.415.077-.288.111-.516.328-.641.611-.125.282-.133.597-.022.884L23.552 14.576zM6.864 22.619l6.842 3.034c.149.066.307.1.468.1.457 0 .874-.271 1.058-.688.259-.583-.006-1.268-.588-1.526l-6.842-3.034c-.149-.066-.307-.1-.469-.1-.457 0-.872.27-1.057.688C6.017 21.677 6.281 22.361 6.864 22.619zM15.217 39.837c.125-.282.133-.597.022-.884-.169-.443-.603-.741-1.08-.741-.142 0-.281.026-.415.078l-6.983 2.693c-.288.111-.516.328-.641.611-.125.282-.133.597-.022.884.17.443.603.741 1.079.741.141 0 .281-.026.416-.078l6.983-2.693C14.864 40.337 15.092 40.12 15.217 39.837zM25.065 48.768c-.15-.066-.307-.099-.469-.099-.458 0-.873.27-1.057.688l-3.034 6.842c-.259.583.006 1.268.588 1.526.149.066.307.1.468.1.458 0 .874-.271 1.058-.689l3.034-6.842c.125-.282.133-.597.022-.885C25.564 49.121 25.347 48.893 25.065 48.768zM40.448 49.424c-.17-.443-.604-.74-1.08-.74-.142 0-.281.026-.415.077-.288.111-.516.328-.641.611-.125.282-.133.597-.022.884l2.693 6.983c.17.443.603.741 1.079.741.141 0 .281-.026.416-.078.288-.111.516-.328.641-.611.125-.282.133-.597.022-.884L40.448 49.424zM57.136 41.381l-6.842-3.034c-.15-.066-.307-.099-.469-.099-.458 0-.873.27-1.057.688-.259.583.006 1.268.588 1.526l6.842 3.034c.149.066.307.1.468.1.457 0 .873-.271 1.058-.688C57.983 42.323 57.719 41.639 57.136 41.381zM48.783 24.163c-.125.282-.133.597-.022.884.17.443.603.741 1.079.741.141 0 .281-.026.416-.078l6.983-2.693c.288-.111.516-.328.641-.611.125-.282.133-.597.022-.884-.169-.443-.603-.741-1.08-.741-.142 0-.281.026-.415.077l-6.983 2.693C49.136 23.663 48.908 23.88 48.783 24.163zM38.935 15.231c.149.066.307.1.468.1.458 0 .874-.271 1.058-.688l3.034-6.842c.125-.282.133-.597.022-.885-.111-.288-.328-.516-.61-.641-.149-.066-.306-.1-.468-.1-.458 0-.873.27-1.058.688l-3.034 6.842c-.125.282-.133.597-.022.885C38.436 14.879 38.653 15.107 38.935 15.231z"
  />
</svg>
